# Made in Blockbench 4.12.4
mtllib ArcheryTower.mtl

o cuboid
v 0.5 0.375 0.5
v 0.5 0.375 -0.5
v 0.5 0 0.5
v 0.5 0 -0.5
v -0.5 0.375 0.5
v -0.5 0.375 -0.5
v -0.5 0 0.5
v -0.5 0 -0.5
vt 0.875 1
vt 0 1
vt 0 0.6875
vt 0.875 0.6875
vt 0.5 0.75
vt 0.5 1
vt 0 1
vt 0 0.75
vt 0 0.1875
vt 0.875 0.1875
vt 0.875 1
vt 0 1
vt 0.875 0.1875
vt 0.875 1
vt 0 1
vt 0 0.1875
vt 0.875 0.6875
vt 0.875 1
vt 0 1
vt 0 0.6875
vt 0.875 1
vt 0 1
vt 0 0.6875
vt 0.875 0.6875
vn 1 0 0
vn -1 0 0
vn 0 1 0
vn 0 -1 0
vn 0 0 1
vn 0 0 -1
usemtl m_14c777fe-bb5e-0959-f904-6b31c8073baa
f 2/1/1 1/2/1 3/3/1 4/4/1
f 7/5/2 5/6/2 6/7/2 8/8/2
f 5/9/3 1/10/3 2/11/3 6/12/3
f 4/13/4 3/14/4 7/15/4 8/16/4
f 3/17/5 1/18/5 5/19/5 7/20/5
f 6/21/6 2/22/6 4/23/6 8/24/6
o cuboid
v 0.4375 1.375 0.4375
v 0.4375 1.375 -0.4375
v 0.4375 0.375 0.4375
v 0.4375 0.375 -0.4375
v -0.4375 1.375 0.4375
v -0.4375 1.375 -0.4375
v -0.4375 0.375 0.4375
v -0.4375 0.375 -0.4375
vt 0.5 0.59375
vt 0.5 1
vt 0 1
vt 0 0.59375
vt 0.5 0.59375
vt 0.5 1
vt 0 1
vt 0 0.59375
vt 0 0.5
vt 0.5 0.5
vt 0.5 1
vt 0 1
vt 0.5 0.5
vt 0.5 1
vt 0 1
vt 0 0.5
vt 0.375 0.546875
vt 0.375 1
vt 0 1
vt 0 0.546875
vt 0.375 1
vt 0 1
vt 0 0.546875
vt 0.375 0.546875
vn 1 0 0
vn -1 0 0
vn 0 1 0
vn 0 -1 0
vn 0 0 1
vn 0 0 -1
usemtl m_eb0f05e6-e726-fd93-3761-0eacd84736ef
f 10/25/7 9/26/7 11/27/7 12/28/7
f 15/29/8 13/30/8 14/31/8 16/32/8
f 13/33/9 9/34/9 10/35/9 14/36/9
f 12/37/10 11/38/10 15/39/10 16/40/10
f 11/41/11 9/42/11 13/43/11 15/44/11
f 14/45/12 10/46/12 12/47/12 16/48/12
o cuboid
v 0.625 1.625 0.625
v 0.625 1.625 -0.625
v 0.625 1.375 0.625
v 0.625 1.375 -0.625
v -0.625 1.625 0.625
v -0.625 1.625 -0.625
v -0.625 1.375 0.625
v -0.625 1.375 -0.625
vt 0.9375 1
vt 0 1
vt 0 0.8125
vt 0.9375 0.8125
vt 0.9375 0.8125
vt 0.9375 1
vt 0 1
vt 0 0.8125
vt 0 0.12946437499999996
vt 0.9375 0.12946437499999996
vt 0.9375 1
vt 0 1
vt 0.9375 0.12946437499999996
vt 0.9375 1
vt 0 1
vt 0 0.12946437499999996
vt 0.9375 0.8125
vt 0.9375 1
vt 0 1
vt 0 0.8125
vt 0.9375 1
vt 0 1
vt 0 0.8125
vt 0.9375 0.8125
vn 1 0 0
vn -1 0 0
vn 0 1 0
vn 0 -1 0
vn 0 0 1
vn 0 0 -1
usemtl m_14c777fe-bb5e-0959-f904-6b31c8073baa
f 18/49/13 17/50/13 19/51/13 20/52/13
f 23/53/14 21/54/14 22/55/14 24/56/14
f 21/57/15 17/58/15 18/59/15 22/60/15
f 20/61/16 19/62/16 23/63/16 24/64/16
f 19/65/17 17/66/17 21/67/17 23/68/17
f 22/69/18 18/70/18 20/71/18 24/72/18
o pyramid
v 0 2.5625 0
v 0.6875 2.0625 0.6875
v 0.6875 2.0625 -0.6875
v -0.6875 2.0625 0.6875
v -0.6875 2.0625 -0.6875
vt 1 0
vt 1 1
vt 0 1
vt 0 0
vt 0 0.29288749999999997
vt 1 0.29288749999999997
vt 0.5 1
vt 0 0
vt 1 0
vt 0.5 0.7071125
vt 0 0
vt 1 0
vt 0.5 0.7071125
vt 0 0.29288749999999997
vt 1 0.29288749999999997
vt 0.5 1
vn 0 -1 0
vn 0.5881716976750462 0.8087360843031886 0
vn 0 0.8087360843031886 0.5881716976750462
vn 0 0.8087360843031886 -0.5881716976750462
vn -0.5881716976750462 0.8087360843031886 0
usemtl m_14c777fe-bb5e-0959-f904-6b31c8073baa
f 27/73/19 26/74/19 28/75/19 29/76/19
f 26/77/20 27/78/20 25/79/20
f 28/80/21 26/81/21 25/82/21
f 27/83/22 29/84/22 25/85/22
f 29/86/23 28/87/23 25/88/23
o cuboid
v 0.625 1.75 -0.5
v 0.625 1.75 -0.625
v 0.625 1.625 -0.5
v 0.625 1.625 -0.625
v -0.625 1.75 -0.5
v -0.625 1.75 -0.625
v -0.625 1.625 -0.5
v -0.625 1.625 -0.625
vt 0.09375 1
vt 0 1
vt 0 0.90625
vt 0.09375 0.90625
vt 0.09375 0.90625
vt 0.09375 1
vt 0 1
vt 0 0.90625
vt 0 0.910714375
vt 0.9375 0.910714375
vt 0.9375 1
vt 0 1
vt 0.9375 0.12946437499999996
vt 0.9375 1
vt 0 1
vt 0 0.12946437499999996
vt 0.9375 0.90625
vt 0.9375 1
vt 0 1
vt 0 0.90625
vt 0.9375 1
vt 0 1
vt 0 0.90625
vt 0.9375 0.90625
vn 1 0 0
vn -1 0 0
vn 0 1 0
vn 0 -1 0
vn 0 0 1
vn 0 0 -1
usemtl m_14c777fe-bb5e-0959-f904-6b31c8073baa
f 31/89/24 30/90/24 32/91/24 33/92/24
f 36/93/25 34/94/25 35/95/25 37/96/25
f 34/97/26 30/98/26 31/99/26 35/100/26
f 33/101/27 32/102/27 36/103/27 37/104/27
f 32/105/28 30/106/28 34/107/28 36/108/28
f 35/109/29 31/110/29 33/111/29 37/112/29
o cuboid
v 0.625 1.75 0.625
v 0.625 1.75 0.5
v 0.625 1.625 0.625
v 0.625 1.625 0.5
v -0.625 1.75 0.625
v -0.625 1.75 0.5
v -0.625 1.625 0.625
v -0.625 1.625 0.5
vt 0.09375 1
vt 0 1
vt 0 0.90625
vt 0.09375 0.90625
vt 0.09375 0.90625
vt 0.09375 1
vt 0 1
vt 0 0.90625
vt 0 0.910714375
vt 0.9375 0.910714375
vt 0.9375 1
vt 0 1
vt 0.9375 0.12946437499999996
vt 0.9375 1
vt 0 1
vt 0 0.12946437499999996
vt 0.9375 0.90625
vt 0.9375 1
vt 0 1
vt 0 0.90625
vt 0.9375 1
vt 0 1
vt 0 0.90625
vt 0.9375 0.90625
vn 1 0 0
vn -1 0 0
vn 0 1 0
vn 0 -1 0
vn 0 0 1
vn 0 0 -1
usemtl m_14c777fe-bb5e-0959-f904-6b31c8073baa
f 39/113/30 38/114/30 40/115/30 41/116/30
f 44/117/31 42/118/31 43/119/31 45/120/31
f 42/121/32 38/122/32 39/123/32 43/124/32
f 41/125/33 40/126/33 44/127/33 45/128/33
f 40/129/34 38/130/34 42/131/34 44/132/34
f 43/133/35 39/134/35 41/135/35 45/136/35
o cuboid
v -0.5 1.75 0.5
v -0.5 1.75 -0.5
v -0.5 1.625 0.5
v -0.5 1.625 -0.5
v -0.625 1.75 0.5
v -0.625 1.75 -0.5
v -0.625 1.625 0.5
v -0.625 1.625 -0.5
vt 0.09375 1
vt 0 1
vt 0 0.90625
vt 0.09375 0.90625
vt 0.09375 0.90625
vt 0.09375 1
vt 0 1
vt 0 0.90625
vt 0 0.06696437499999996
vt 0.09375 0.06696437499999996
vt 0.09375 1
vt 0 1
vt 0.9375 0.12946437499999996
vt 0.9375 1
vt 0 1
vt 0 0.12946437499999996
vt 0.9375 0.90625
vt 0.9375 1
vt 0 1
vt 0 0.90625
vt 0.9375 1
vt 0 1
vt 0 0.90625
vt 0.9375 0.90625
vn 1 0 0
vn -1 0 0
vn 0 1 0
vn 0 -1 0
vn 0 0 1
vn 0 0 -1
usemtl m_14c777fe-bb5e-0959-f904-6b31c8073baa
f 47/137/36 46/138/36 48/139/36 49/140/36
f 52/141/37 50/142/37 51/143/37 53/144/37
f 50/145/38 46/146/38 47/147/38 51/148/38
f 49/149/39 48/150/39 52/151/39 53/152/39
f 48/153/40 46/154/40 50/155/40 52/156/40
f 51/157/41 47/158/41 49/159/41 53/160/41
o cuboid
v 0.625 1.75 0.5
v 0.625 1.75 -0.5
v 0.625 1.625 0.5
v 0.625 1.625 -0.5
v 0.5 1.75 0.5
v 0.5 1.75 -0.5
v 0.5 1.625 0.5
v 0.5 1.625 -0.5
vt 0.09375 1
vt 0 1
vt 0 0.90625
vt 0.09375 0.90625
vt 0.09375 0.90625
vt 0.09375 1
vt 0 1
vt 0 0.90625
vt 0 0.06696437499999996
vt 0.09375 0.06696437499999996
vt 0.09375 1
vt 0 1
vt 0.9375 0.12946437499999996
vt 0.9375 1
vt 0 1
vt 0 0.12946437499999996
vt 0.9375 0.90625
vt 0.9375 1
vt 0 1
vt 0 0.90625
vt 0.9375 1
vt 0 1
vt 0 0.90625
vt 0.9375 0.90625
vn 1 0 0
vn -1 0 0
vn 0 1 0
vn 0 -1 0
vn 0 0 1
vn 0 0 -1
usemtl m_14c777fe-bb5e-0959-f904-6b31c8073baa
f 55/161/42 54/162/42 56/163/42 57/164/42
f 60/165/43 58/166/43 59/167/43 61/168/43
f 58/169/44 54/170/44 55/171/44 59/172/44
f 57/173/45 56/174/45 60/175/45 61/176/45
f 56/177/46 54/178/46 58/179/46 60/180/46
f 59/181/47 55/182/47 57/183/47 61/184/47
o cuboid
v 0.621875 2.0625 0.621875
v 0.621875 2.0625 0.503125
v 0.621875 1.6875 0.621875
v 0.621875 1.6875 0.503125
v 0.503125 2.0625 0.621875
v 0.503125 2.0625 0.503125
v 0.503125 1.6875 0.621875
v 0.503125 1.6875 0.503125
vt 0.28125 1
vt 0.1875 1
vt 0.1875 0.6875
vt 0.28125 0.6875
vt 0.09375 0.6875
vt 0.09375 1
vt 0 1
vt 0 0.6875
vt 0 0.06696437499999996
vt 0.09375 0.06696437499999996
vt 0.09375 1
vt 0 1
vt 0.9375 0.12946437499999996
vt 0.9375 1
vt 0 1
vt 0 0.12946437499999996
vt 0.1875 0.6875
vt 0.1875 1
vt 0.09375 1
vt 0.09375 0.6875
vt 0.375 0.96875
vt 0.28125 0.96875
vt 0.28125 0.65625
vt 0.375 0.65625
vn 1 0 0
vn -1 0 0
vn 0 1 0
vn 0 -1 0
vn 0 0 1
vn 0 0 -1
usemtl m_14c777fe-bb5e-0959-f904-6b31c8073baa
f 63/185/48 62/186/48 64/187/48 65/188/48
f 68/189/49 66/190/49 67/191/49 69/192/49
f 66/193/50 62/194/50 63/195/50 67/196/50
f 65/197/51 64/198/51 68/199/51 69/200/51
f 64/201/52 62/202/52 66/203/52 68/204/52
f 67/205/53 63/206/53 65/207/53 69/208/53
o cuboid
v -0.503125 2.0625 -0.503125
v -0.503125 2.0625 -0.621875
v -0.503125 1.6875 -0.503125
v -0.503125 1.6875 -0.621875
v -0.621875 2.0625 -0.503125
v -0.621875 2.0625 -0.621875
v -0.621875 1.6875 -0.503125
v -0.621875 1.6875 -0.621875
vt 0.28125 1
vt 0.1875 1
vt 0.1875 0.6875
vt 0.28125 0.6875
vt 0.09375 0.6875
vt 0.09375 1
vt 0 1
vt 0 0.6875
vt 0 0.06696437499999996
vt 0.09375 0.06696437499999996
vt 0.09375 1
vt 0 1
vt 0.9375 0.12946437499999996
vt 0.9375 1
vt 0 1
vt 0 0.12946437499999996
vt 0.1875 0.6875
vt 0.1875 1
vt 0.09375 1
vt 0.09375 0.6875
vt 0.375 0.96875
vt 0.28125 0.96875
vt 0.28125 0.65625
vt 0.375 0.65625
vn 1 0 0
vn -1 0 0
vn 0 1 0
vn 0 -1 0
vn 0 0 1
vn 0 0 -1
usemtl m_14c777fe-bb5e-0959-f904-6b31c8073baa
f 71/209/54 70/210/54 72/211/54 73/212/54
f 76/213/55 74/214/55 75/215/55 77/216/55
f 74/217/56 70/218/56 71/219/56 75/220/56
f 73/221/57 72/222/57 76/223/57 77/224/57
f 72/225/58 70/226/58 74/227/58 76/228/58
f 75/229/59 71/230/59 73/231/59 77/232/59
o cuboid
v 0.621875 2.0625 -0.503125
v 0.621875 2.0625 -0.621875
v 0.621875 1.6875 -0.503125
v 0.621875 1.6875 -0.621875
v 0.503125 2.0625 -0.503125
v 0.503125 2.0625 -0.621875
v 0.503125 1.6875 -0.503125
v 0.503125 1.6875 -0.621875
vt 0.28125 1
vt 0.1875 1
vt 0.1875 0.6875
vt 0.28125 0.6875
vt 0.09375 0.6875
vt 0.09375 1
vt 0 1
vt 0 0.6875
vt 0 0.06696437499999996
vt 0.09375 0.06696437499999996
vt 0.09375 1
vt 0 1
vt 0.9375 0.12946437499999996
vt 0.9375 1
vt 0 1
vt 0 0.12946437499999996
vt 0.1875 0.6875
vt 0.1875 1
vt 0.09375 1
vt 0.09375 0.6875
vt 0.375 0.96875
vt 0.28125 0.96875
vt 0.28125 0.65625
vt 0.375 0.65625
vn 1 0 0
vn -1 0 0
vn 0 1 0
vn 0 -1 0
vn 0 0 1
vn 0 0 -1
usemtl m_14c777fe-bb5e-0959-f904-6b31c8073baa
f 79/233/60 78/234/60 80/235/60 81/236/60
f 84/237/61 82/238/61 83/239/61 85/240/61
f 82/241/62 78/242/62 79/243/62 83/244/62
f 81/245/63 80/246/63 84/247/63 85/248/63
f 80/249/64 78/250/64 82/251/64 84/252/64
f 83/253/65 79/254/65 81/255/65 85/256/65
o cuboid
v -0.503125 2.0625 0.621875
v -0.503125 2.0625 0.503125
v -0.503125 1.6875 0.621875
v -0.503125 1.6875 0.503125
v -0.621875 2.0625 0.621875
v -0.621875 2.0625 0.503125
v -0.621875 1.6875 0.621875
v -0.621875 1.6875 0.503125
vt 0.28125 1
vt 0.1875 1
vt 0.1875 0.6875
vt 0.28125 0.6875
vt 0.09375 0.6875
vt 0.09375 1
vt 0 1
vt 0 0.6875
vt 0 0.06696437499999996
vt 0.09375 0.06696437499999996
vt 0.09375 1
vt 0 1
vt 0.9375 0.12946437499999996
vt 0.9375 1
vt 0 1
vt 0 0.12946437499999996
vt 0.1875 0.6875
vt 0.1875 1
vt 0.09375 1
vt 0.09375 0.6875
vt 0.375 0.96875
vt 0.28125 0.96875
vt 0.28125 0.65625
vt 0.375 0.65625
vn 1 0 0
vn -1 0 0
vn 0 1 0
vn 0 -1 0
vn 0 0 1
vn 0 0 -1
usemtl m_14c777fe-bb5e-0959-f904-6b31c8073baa
f 87/257/66 86/258/66 88/259/66 89/260/66
f 92/261/67 90/262/67 91/263/67 93/264/67
f 90/265/68 86/266/68 87/267/68 91/268/68
f 89/269/69 88/270/69 92/271/69 93/272/69
f 88/273/70 86/274/70 90/275/70 92/276/70
f 91/277/71 87/278/71 89/279/71 93/280/71
o cuboid
v 0.03125 1.378791260736239 0.610485434560398
v 0.03125 1.422985434560398 0.5662912607362388
v 0.03125 1.202014565439602 0.4337087392637612
v 0.03125 1.246208739263761 0.38951456543960195
v -0.03125 1.378791260736239 0.610485434560398
v -0.03125 1.422985434560398 0.5662912607362388
v -0.03125 1.202014565439602 0.4337087392637612
v -0.03125 1.246208739263761 0.38951456543960195
vt 0.0625 1
vt 0 1
vt 0 0.6875
vt 0.0625 0.6875
vt 0.25 0.6875
vt 0.25 1
vt 0.1875 1
vt 0.1875 0.6875
vt 0 0.06696437499999996
vt 0.09375 0.06696437499999996
vt 0.09375 1
vt 0 1
vt 0.9375 0.12946437499999996
vt 0.9375 1
vt 0 1
vt 0 0.12946437499999996
vt 0.3125 0.6875
vt 0.3125 1
vt 0.25 1
vt 0.25 0.6875
vt 0.125 1
vt 0.0625 1
vt 0.0625 0.6875
vt 0.125 0.6875
vn 1 0 0
vn -1 0 0
vn 0 0.7071067811865475 0.7071067811865476
vn 0 -0.7071067811865475 -0.7071067811865476
vn 0 -0.7071067811865476 0.7071067811865475
vn 0 0.7071067811865476 -0.7071067811865475
usemtl m_14c777fe-bb5e-0959-f904-6b31c8073baa
f 95/281/72 94/282/72 96/283/72 97/284/72
f 100/285/73 98/286/73 99/287/73 101/288/73
f 98/289/74 94/290/74 95/291/74 99/292/74
f 97/293/75 96/294/75 100/295/75 101/296/75
f 96/297/76 94/298/76 98/299/76 100/300/76
f 99/301/77 95/302/77 97/303/77 101/304/77
o cuboid
v 0.03125 1.422985434560398 -0.5662912607362388
v 0.03125 1.378791260736239 -0.610485434560398
v 0.03125 1.246208739263761 -0.38951456543960195
v 0.03125 1.202014565439602 -0.4337087392637612
v -0.03125 1.422985434560398 -0.5662912607362388
v -0.03125 1.378791260736239 -0.610485434560398
v -0.03125 1.246208739263761 -0.38951456543960195
v -0.03125 1.202014565439602 -0.4337087392637612
vt 0.0625 1
vt 0 1
vt 0 0.6875
vt 0.0625 0.6875
vt 0.25 0.6875
vt 0.25 1
vt 0.1875 1
vt 0.1875 0.6875
vt 0 0.06696437499999996
vt 0.09375 0.06696437499999996
vt 0.09375 1
vt 0 1
vt 0.9375 0.12946437499999996
vt 0.9375 1
vt 0 1
vt 0 0.12946437499999996
vt 0.3125 0.6875
vt 0.3125 1
vt 0.25 1
vt 0.25 0.6875
vt 0.125 1
vt 0.0625 1
vt 0.0625 0.6875
vt 0.125 0.6875
vn 1 0 0
vn -1 0 0
vn 0 0.7071067811865475 -0.7071067811865476
vn 0 -0.7071067811865475 0.7071067811865476
vn 0 0.7071067811865476 0.7071067811865475
vn 0 -0.7071067811865476 -0.7071067811865475
usemtl m_14c777fe-bb5e-0959-f904-6b31c8073baa
f 103/305/78 102/306/78 104/307/78 105/308/78
f 108/309/79 106/310/79 107/311/79 109/312/79
f 106/313/80 102/314/80 103/315/80 107/316/80
f 105/317/81 104/318/81 108/319/81 109/320/81
f 104/321/82 102/322/82 106/323/82 108/324/82
f 107/325/83 103/326/83 105/327/83 109/328/83
o cuboid
v -0.5662912607362388 1.422985434560398 0.09375
v -0.5662912607362388 1.422985434560398 0.03125
v -0.38951456543960195 1.246208739263761 0.09375
v -0.38951456543960195 1.246208739263761 0.03125
v -0.610485434560398 1.378791260736239 0.09375
v -0.610485434560398 1.378791260736239 0.03125
v -0.4337087392637612 1.202014565439602 0.09375
v -0.4337087392637612 1.202014565439602 0.03125
vt 0.0625 1
vt 0 1
vt 0 0.6875
vt 0.0625 0.6875
vt 0.25 0.6875
vt 0.25 1
vt 0.1875 1
vt 0.1875 0.6875
vt 0 0.06696437499999996
vt 0.09375 0.06696437499999996
vt 0.09375 1
vt 0 1
vt 0.9375 0.12946437499999996
vt 0.9375 1
vt 0 1
vt 0 0.12946437499999996
vt 0.3125 0.6875
vt 0.3125 1
vt 0.25 1
vt 0.25 0.6875
vt 0.125 1
vt 0.0625 1
vt 0.0625 0.6875
vt 0.125 0.6875
vn 0.7071067811865475 0.7071067811865476 0
vn -0.7071067811865475 -0.7071067811865476 0
vn -0.7071067811865476 0.7071067811865475 0
vn 0.7071067811865476 -0.7071067811865475 0
vn 0 0 1
vn 0 0 -1
usemtl m_14c777fe-bb5e-0959-f904-6b31c8073baa
f 111/329/84 110/330/84 112/331/84 113/332/84
f 116/333/85 114/334/85 115/335/85 117/336/85
f 114/337/86 110/338/86 111/339/86 115/340/86
f 113/341/87 112/342/87 116/343/87 117/344/87
f 112/345/88 110/346/88 114/347/88 116/348/88
f 115/349/89 111/350/89 113/351/89 117/352/89
o cuboid
v 0.610485434560398 1.378791260736239 0.09375
v 0.610485434560398 1.378791260736239 0.03125
v 0.4337087392637612 1.202014565439602 0.09375
v 0.4337087392637612 1.202014565439602 0.03125
v 0.5662912607362388 1.422985434560398 0.09375
v 0.5662912607362388 1.422985434560398 0.03125
v 0.38951456543960195 1.246208739263761 0.09375
v 0.38951456543960195 1.246208739263761 0.03125
vt 0.0625 1
vt 0 1
vt 0 0.6875
vt 0.0625 0.6875
vt 0.25 0.6875
vt 0.25 1
vt 0.1875 1
vt 0.1875 0.6875
vt 0 0.06696437499999996
vt 0.09375 0.06696437499999996
vt 0.09375 1
vt 0 1
vt 0.9375 0.12946437499999996
vt 0.9375 1
vt 0 1
vt 0 0.12946437499999996
vt 0.3125 0.6875
vt 0.3125 1
vt 0.25 1
vt 0.25 0.6875
vt 0.125 1
vt 0.0625 1
vt 0.0625 0.6875
vt 0.125 0.6875
vn 0.7071067811865475 -0.7071067811865476 0
vn -0.7071067811865475 0.7071067811865476 0
vn 0.7071067811865476 0.7071067811865475 0
vn -0.7071067811865476 -0.7071067811865475 0
vn 0 0 1
vn 0 0 -1
usemtl m_14c777fe-bb5e-0959-f904-6b31c8073baa
f 119/353/90 118/354/90 120/355/90 121/356/90
f 124/357/91 122/358/91 123/359/91 125/360/91
f 122/361/92 118/362/92 119/363/92 123/364/92
f 121/365/93 120/366/93 124/367/93 125/368/93
f 120/369/94 118/370/94 122/371/94 124/372/94
f 123/373/95 119/374/95 121/375/95 125/376/95
o cuboid
v -0.5482154130879204 1.4561310649285175 0.5924095869120796
v -0.5924095869120796 1.4561310649285175 0.5482154130879204
v -0.37634041308792043 1.2130631088956418 0.4205345869120796
v -0.4205345869120796 1.2130631088956418 0.3763404130879204
v -0.5794654130879204 1.4119368911043582 0.6236595869120796
v -0.6236595869120796 1.4119368911043582 0.5794654130879204
v -0.40759041308792043 1.1688689350714825 0.4517845869120796
v -0.4517845869120796 1.1688689350714825 0.4075904130879204
vt 0.0625 1
vt 0 1
vt 0 0.6875
vt 0.0625 0.6875
vt 0.25 0.6875
vt 0.25 1
vt 0.1875 1
vt 0.1875 0.6875
vt 0 0.06696437499999996
vt 0.09375 0.06696437499999996
vt 0.09375 1
vt 0 1
vt 0.9375 0.12946437499999996
vt 0.9375 1
vt 0 1
vt 0 0.12946437499999996
vt 0.3125 0.6875
vt 0.3125 1
vt 0.25 1
vt 0.25 0.6875
vt 0.125 1
vt 0.0625 1
vt 0.0625 0.6875
vt 0.125 0.6875
vn 0.5 0.7071067811865477 -0.5
vn -0.5 -0.7071067811865477 0.5
vn -0.5 0.7071067811865476 0.5
vn 0.5 -0.7071067811865476 -0.5
vn 0.7071067811865477 0 0.7071067811865476
vn -0.7071067811865477 0 -0.7071067811865476
usemtl m_14c777fe-bb5e-0959-f904-6b31c8073baa
f 127/377/96 126/378/96 128/379/96 129/380/96
f 132/381/97 130/382/97 131/383/97 133/384/97
f 130/385/98 126/386/98 127/387/98 131/388/98
f 129/389/99 128/390/99 132/391/99 133/392/99
f 128/393/100 126/394/100 130/395/100 132/396/100
f 131/397/101 127/398/101 129/399/101 133/400/101
o cuboid
v 0.5794654130879204 1.4119368911043582 0.6236595869120796
v 0.6236595869120796 1.4119368911043582 0.5794654130879204
v 0.40759041308792043 1.1688689350714825 0.4517845869120796
v 0.4517845869120796 1.1688689350714825 0.4075904130879204
v 0.5482154130879204 1.4561310649285175 0.5924095869120796
v 0.5924095869120796 1.4561310649285175 0.5482154130879204
v 0.37634041308792043 1.2130631088956418 0.4205345869120796
v 0.4205345869120796 1.2130631088956418 0.3763404130879204
vt 0.0625 1
vt 0 1
vt 0 0.6875
vt 0.0625 0.6875
vt 0.25 0.6875
vt 0.25 1
vt 0.1875 1
vt 0.1875 0.6875
vt 0 0.06696437499999996
vt 0.09375 0.06696437499999996
vt 0.09375 1
vt 0 1
vt 0.9375 0.12946437499999996
vt 0.9375 1
vt 0 1
vt 0 0.12946437499999996
vt 0.3125 0.6875
vt 0.3125 1
vt 0.25 1
vt 0.25 0.6875
vt 0.125 1
vt 0.0625 1
vt 0.0625 0.6875
vt 0.125 0.6875
vn 0.5 -0.7071067811865477 0.5
vn -0.5 0.7071067811865477 -0.5
vn 0.5 0.7071067811865476 0.5
vn -0.5 -0.7071067811865476 -0.5
vn -0.7071067811865477 0 0.7071067811865476
vn 0.7071067811865477 0 -0.7071067811865476
usemtl m_14c777fe-bb5e-0959-f904-6b31c8073baa
f 135/401/102 134/402/102 136/403/102 137/404/102
f 140/405/103 138/406/103 139/407/103 141/408/103
f 138/409/104 134/410/104 135/411/104 139/412/104
f 137/413/105 136/414/105 140/415/105 141/416/105
f 136/417/106 134/418/106 138/419/106 140/420/106
f 139/421/107 135/422/107 137/423/107 141/424/107
o cuboid
v 0.6236595869120796 1.4119368911043582 -0.5794654130879204
v 0.5794654130879204 1.4119368911043582 -0.6236595869120796
v 0.4517845869120796 1.1688689350714825 -0.4075904130879204
v 0.40759041308792043 1.1688689350714825 -0.4517845869120796
v 0.5924095869120796 1.4561310649285175 -0.5482154130879204
v 0.5482154130879204 1.4561310649285175 -0.5924095869120796
v 0.4205345869120796 1.2130631088956418 -0.3763404130879204
v 0.37634041308792043 1.2130631088956418 -0.4205345869120796
vt 0.0625 1
vt 0 1
vt 0 0.6875
vt 0.0625 0.6875
vt 0.25 0.6875
vt 0.25 1
vt 0.1875 1
vt 0.1875 0.6875
vt 0 0.06696437499999996
vt 0.09375 0.06696437499999996
vt 0.09375 1
vt 0 1
vt 0.9375 0.12946437499999996
vt 0.9375 1
vt 0 1
vt 0 0.12946437499999996
vt 0.3125 0.6875
vt 0.3125 1
vt 0.25 1
vt 0.25 0.6875
vt 0.125 1
vt 0.0625 1
vt 0.0625 0.6875
vt 0.125 0.6875
vn 0.5 -0.7071067811865477 -0.5
vn -0.5 0.7071067811865477 0.5
vn 0.5 0.7071067811865476 -0.5
vn -0.5 -0.7071067811865476 0.5
vn 0.7071067811865477 0 0.7071067811865476
vn -0.7071067811865477 0 -0.7071067811865476
usemtl m_14c777fe-bb5e-0959-f904-6b31c8073baa
f 143/425/108 142/426/108 144/427/108 145/428/108
f 148/429/109 146/430/109 147/431/109 149/432/109
f 146/433/110 142/434/110 143/435/110 147/436/110
f 145/437/111 144/438/111 148/439/111 149/440/111
f 144/441/112 142/442/112 146/443/112 148/444/112
f 147/445/113 143/446/113 145/447/113 149/448/113
o cuboid
v -0.5924095869120796 1.4561310649285175 -0.5482154130879204
v -0.5482154130879204 1.4561310649285175 -0.5924095869120796
v -0.4205345869120796 1.2130631088956418 -0.3763404130879204
v -0.37634041308792043 1.2130631088956418 -0.4205345869120796
v -0.6236595869120796 1.4119368911043582 -0.5794654130879204
v -0.5794654130879204 1.4119368911043582 -0.6236595869120796
v -0.4517845869120796 1.1688689350714825 -0.4075904130879204
v -0.40759041308792043 1.1688689350714825 -0.4517845869120796
vt 0.0625 1
vt 0 1
vt 0 0.6875
vt 0.0625 0.6875
vt 0.25 0.6875
vt 0.25 1
vt 0.1875 1
vt 0.1875 0.6875
vt 0 0.06696437499999996
vt 0.09375 0.06696437499999996
vt 0.09375 1
vt 0 1
vt 0.9375 0.12946437499999996
vt 0.9375 1
vt 0 1
vt 0 0.12946437499999996
vt 0.3125 0.6875
vt 0.3125 1
vt 0.25 1
vt 0.25 0.6875
vt 0.125 1
vt 0.0625 1
vt 0.0625 0.6875
vt 0.125 0.6875
vn 0.5 0.7071067811865477 0.5
vn -0.5 -0.7071067811865477 -0.5
vn -0.5 0.7071067811865476 -0.5
vn 0.5 -0.7071067811865476 0.5
vn -0.7071067811865477 0 0.7071067811865476
vn 0.7071067811865477 0 -0.7071067811865476
usemtl m_14c777fe-bb5e-0959-f904-6b31c8073baa
f 151/449/114 150/450/114 152/451/114 153/452/114
f 156/453/115 154/454/115 155/455/115 157/456/115
f 154/457/116 150/458/116 151/459/116 155/460/116
f 153/461/117 152/462/117 156/463/117 157/464/117
f 152/465/118 150/466/118 154/467/118 156/468/118
f 155/469/119 151/470/119 153/471/119 157/472/119